<?xml version="1.0" encoding="UTF-8" standalone="no"?>
<svg
   xmlns:dc="http://purl.org/dc/elements/1.1/"
   xmlns:cc="http://creativecommons.org/ns#"
   xmlns:rdf="http://www.w3.org/1999/02/22-rdf-syntax-ns#"
   xmlns:svg="http://www.w3.org/2000/svg"
   xmlns="http://www.w3.org/2000/svg"
   xmlns:sodipodi="http://sodipodi.sourceforge.net/DTD/sodipodi-0.dtd"
   xmlns:inkscape="http://www.inkscape.org/namespaces/inkscape"
   version="1.0"
   width="1280.000000pt"
   height="1258.000000pt"
   viewBox="0 0 1280.000000 1258.000000"
   preserveAspectRatio="xMidYMid meet"
   id="svg50"
   sodipodi:docname="lpcp-contest-logo.svg"
   inkscape:version="0.92.2 5c3e80d, 2017-08-06">
  <defs
     id="defs54" />
  <sodipodi:namedview
     pagecolor="#ffffff"
     bordercolor="#666666"
     borderopacity="1"
     objecttolerance="10"
     gridtolerance="10"
     guidetolerance="10"
     inkscape:pageopacity="0"
     inkscape:pageshadow="2"
     inkscape:window-width="1147"
     inkscape:window-height="733"
     id="namedview52"
     showgrid="false"
     inkscape:zoom="0.28139905"
     inkscape:cx="1026.2276"
     inkscape:cy="748.2225"
     inkscape:window-x="129"
     inkscape:window-y="12"
     inkscape:window-maximized="0"
     inkscape:current-layer="svg50" />
  <metadata
     id="metadata2">
Created by potrace 1.15, written by Peter Selinger 2001-2017
<rdf:RDF>
  <cc:Work
     rdf:about="">
    <dc:format>image/svg+xml</dc:format>
    <dc:type
       rdf:resource="http://purl.org/dc/dcmitype/StillImage" />
    <dc:title></dc:title>
  </cc:Work>
</rdf:RDF>
</metadata>
  <g
     transform="translate(0.000000,1258.000000) scale(0.100000,-0.100000)"
     fill="#000000"
     stroke="none"
     id="g48">
    <path
       d="M4865 12280 c-243 -43 -407 -131 -580 -311 -115 -120 -163 -184 -377 -509 -96 -146 -211 -314 -256 -373 -45 -60 -82 -111 -82 -113 0 -2 75 -4 168 -4 189 0 336 -11 567 -42 121 -17 211 -22 370 -22 194 0 217 2 306 26 197 53 374 140 616 301 84 56 153 104 153 107 0 3 -39 2 -87 -3 -142 -14 -337 -2 -523 34 -151 29 -183 32 -370 33 -113 1 -245 -3 -295 -7 l-90 -8 70 52 c162 122 277 262 436 529 94 159 176 245 280 295 l73 35 -139 -1 c-87 0 -178 -7 -240 -19z"
       id="path4" />
    <path
       d="M7378 12260 c111 -56 172 -121 287 -304 148 -238 242 -346 406 -467 38 -29 68 -54 66 -56 -2 -2 -60 2 -128 8 -176 16 -413 6 -587 -25 -213 -37 -357 -48 -502 -38 -69 5 -127 7 -130 5 -10 -8 247 -251 329 -312 103 -76 258 -153 366 -182 139 -37 337 -37 655 0 317 37 494 51 653 51 64 0 117 3 117 6 0 3 -29 53 -63 112 -35 59 -103 179 -152 267 -221 402 -325 556 -471 696 -202 192 -449 279 -794 279 l-132 0 80 -40z"
       id="path6" />
    <path
       d="M4185 12181 c-400 -103 -647 -230 -856 -440 -195 -195 -280 -352 -441 -816 -127 -365 -206 -549 -307 -706 -22 -35 -38 -65 -37 -66 2 -2 18 3 37 11 123 51 279 73 624 86 499 18 672 55 904 191 80 47 293 200 287 207 -8 7 -288 64 -411 82 -174 27 -584 39 -690 21 -37 -7 -69 -10 -71 -8 -2 2 22 60 55 128 138 290 276 523 419 709 94 121 373 397 535 528 77 62 130 112 120 112 -10 -1 -85 -18 -168 -39z"
       id="path8" />
    <path
       d="M8431 12139 c346 -277 646 -640 893 -1084 81 -146 269 -516 264 -520 -2 -2 -24 1 -48 8 -69 17 -467 13 -638 -7 -136 -16 -342 -51 -460 -79 l-53 -12 83 -61 c334 -246 527 -305 1073 -324 290 -10 376 -16 470 -31 54 -9 206 -49 249 -65 10 -4 -2 21 -30 62 -75 113 -187 354 -273 589 -227 615 -299 768 -456 970 -224 288 -544 482 -980 594 -60 16 -130 32 -154 36 l-45 7 105 -83z"
       id="path10" />
    <path
       d="M2632 11281 c-170 -92 -227 -135 -387 -296 -174 -173 -244 -277 -325 -479 -69 -176 -99 -356 -125 -751 -26 -395 -55 -609 -120 -874 -20 -79 -34 -145 -32 -147 6 -7 765 463 972 601 216 144 318 222 446 343 77 72 273 291 266 298 -7 7 -639 -17 -706 -26 -100 -15 -228 -54 -319 -95 -41 -20 -77 -34 -79 -32 -6 7 144 516 201 685 70 204 155 414 262 650 46 101 84 185 84 188 0 9 -18 0 -138 -65z"
       id="path12" />
    <path
       d="M10040 11127 c0 -2 38 -82 84 -178 183 -381 286 -652 421 -1113 30 -104 54 -190 52 -192 -1 -2 -45 14 -97 35 -202 80 -316 97 -724 107 l-299 7 20 -29 c42 -59 229 -247 322 -325 117 -98 273 -209 446 -317 162 -101 919 -550 923 -547 1 1 -13 65 -33 141 -68 262 -94 447 -125 882 -31 434 -62 581 -163 791 -71 146 -132 228 -276 371 -150 150 -258 228 -433 316 -104 52 -118 58 -118 51z"
       id="path14" />
    <path
       d="M1580 10228 c-163 -143 -307 -285 -381 -377 -240 -296 -353 -664 -335 -1091 7 -184 23 -318 85 -718 28 -178 58 -389 66 -470 9 -81 18 -161 21 -179 l5 -32 267 201 c521 393 705 561 901 823 151 202 269 431 362 704 16 47 28 85 26 87 -1 1 -44 -28 -94 -65 -51 -36 -166 -106 -256 -154 -320 -172 -461 -273 -655 -466 -63 -64 -112 -107 -109 -96 7 25 25 352 32 605 13 435 53 732 161 1183 20 82 34 150 32 152 -1 2 -59 -46 -128 -107z"
       id="path16" />
    <path
       d="M11114 10136 c14 -39 76 -296 105 -436 65 -316 86 -513 101 -965 6 -170 15 -350 19 -400 4 -49 6 -92 4 -95 -2 -2 -22 16 -43 41 -48 56 -209 197 -310 271 -93 68 -212 138 -400 236 -161 84 -310 173 -330 197 -7 9 -21 20 -30 25 -14 7 -10 -12 20 -93 59 -161 77 -203 143 -332 179 -351 426 -622 872 -956 266 -200 535 -389 535 -377 0 46 38 327 76 568 25 157 54 343 64 414 71 491 41 819 -105 1123 -122 256 -280 430 -709 782 -18 15 -19 15 -12 -3z"
       id="path18" />
    <path
       d="M589 8637 c-317 -587 -364 -1000 -174 -1493 24 -61 98 -227 165 -370 179 -379 239 -529 306 -758 19 -66 36 -121 38 -123 2 -2 22 24 46 58 24 34 156 206 294 383 138 177 292 383 343 458 174 259 271 488 347 828 31 139 65 350 56 350 -3 0 -13 -13 -22 -28 -51 -87 -177 -198 -524 -467 -240 -186 -396 -353 -498 -534 l-24 -44 -6 44 c-43 360 -58 441 -151 784 -132 490 -154 656 -125 945 6 56 10 104 8 105 -2 2 -37 -60 -79 -138z"
       id="path20" />
    <path
       d="M12177 8565 c4 -33 8 -150 7 -260 -1 -231 -12 -301 -107 -635 -68 -238 -111 -407 -131 -520 -13 -73 -46 -325 -46 -355 0 -5 -16 17 -36 50 -115 190 -253 325 -603 588 -255 191 -359 282 -419 366 -37 50 -37 48 -17 -74 61 -356 149 -624 281 -857 78 -139 179 -276 425 -578 118 -146 253 -314 299 -373 69 -88 86 -105 91 -90 4 10 26 79 49 153 59 189 110 310 280 660 223 460 266 581 290 823 29 293 -67 643 -280 1014 -93 160 -92 160 -83 88z"
       id="path22" />
    <path
       d="M1690 6678 c0 -19 -89 -168 -148 -248 -30 -41 -112 -145 -182 -230 -190 -232 -273 -351 -376 -539 l-63 -115 -17 40 c-27 67 -122 251 -171 332 -26 42 -124 192 -218 332 -94 140 -189 285 -210 323 -38 66 -51 79 -52 55 0 -7 -6 -76 -13 -153 -46 -504 81 -877 476 -1397 43 -57 171 -222 284 -368 113 -146 233 -300 265 -343 32 -43 61 -74 65 -70 4 4 24 103 44 218 63 349 159 695 258 935 41 97 99 339 124 515 22 147 25 442 6 530 -20 91 -54 195 -63 195 -5 0 -9 -5 -9 -12z"
       id="path24" />
    <path
       d="M11098 6514 c-39 -117 -52 -234 -45 -414 10 -252 70 -543 152 -740 103 -248 173 -490 246 -855 27 -137 51 -254 52 -258 1 -4 18 14 38 40 20 26 159 201 310 388 151 187 302 376 335 420 344 455 459 793 425 1253 -7 84 -15 161 -19 173 -6 16 -20 1 -80 -94 -39 -63 -129 -195 -199 -293 -175 -245 -263 -386 -334 -531 -33 -68 -62 -123 -64 -123 -2 0 -22 35 -45 78 -94 174 -210 335 -410 567 -174 203 -214 259 -328 454 -6 10 -16 -10 -34 -65z"
       id="path26" />
    <path
       d="M194 5225 c6 -156 23 -313 47 -412 82 -344 215 -617 411 -839 151 -171 492 -427 818 -613 129 -74 529 -276 534 -270 2 2 -1 78 -5 169 -5 91 -13 437 -19 770 -6 333 -15 643 -20 690 -28 255 -85 437 -166 537 l-37 45 -33 -78 c-129 -295 -200 -512 -235 -714 -23 -134 -35 -403 -22 -507 5 -40 6 -73 2 -73 -3 0 -35 36 -69 81 -127 164 -264 321 -620 713 -135 148 -299 331 -364 405 -65 75 -143 163 -173 196 l-54 60 5 -160z"
       id="path28" />
    <path
       d="M12534 5182 c-62 -70 -244 -267 -405 -438 -407 -430 -549 -587 -693 -762 l-74 -92 5 168 c9 266 -24 479 -116 742 -52 148 -172 429 -183 430 -15 0 -97 -128 -122 -191 -76 -195 -106 -505 -106 -1124 0 -165 -5 -419 -10 -564 -6 -145 -9 -266 -7 -268 9 -9 464 216 633 312 300 173 628 420 759 573 221 256 369 591 420 947 19 126 31 395 19 394 -5 0 -59 -58 -120 -127z"
       id="path30" />
    <path
       d="M2257 3880 c-4 -164 -13 -276 -32 -410 -18 -127 -28 -250 -32 -393 -4 -147 -9 -207 -17 -203 -6 2 -71 32 -143 65 -73 34 -258 111 -410 172 -428 171 -557 245 -755 440 -71 70 -108 100 -108 88 0 -38 42 -231 65 -304 116 -353 351 -587 746 -739 116 -44 202 -72 574 -185 278 -84 442 -151 563 -227 29 -19 53 -34 55 -34 3 0 -56 540 -88 800 -72 590 -172 893 -362 1100 l-50 54 -6 -224z"
       id="path32" />
    <path
       d="M10499 4003 c-173 -179 -273 -452 -343 -944 -29 -199 -108 -881 -103 -886 2 -1 55 24 118 56 151 78 276 123 646 230 345 100 463 141 599 205 374 177 577 448 653 872 l19 107 -87 -85 c-204 -201 -351 -289 -716 -428 -283 -107 -481 -188 -567 -231 -43 -22 -80 -39 -82 -39 -3 0 -5 71 -5 158 0 120 -8 213 -32 397 -27 199 -32 275 -33 442 -1 112 -3 203 -6 203 -3 0 -31 -26 -61 -57z"
       id="path34" />
    <path
       d="M2836 2913 c5 -22 154 -972 154 -983 0 -22 -245 51 -560 165 -249 91 -394 138 -515 169 -88 22 -335 64 -335 57 0 -3 65 -87 144 -186 243 -305 364 -413 571 -515 283 -138 463 -166 975 -150 173 5 336 10 362 10 l48 0 -40 53 c-66 86 -134 238 -225 502 -129 372 -215 539 -369 710 -60 67 -193 185 -209 185 -3 0 -3 -8 -1 -17z"
       id="path36" />
    <path
       d="M9929 2892 c-184 -141 -315 -304 -431 -537 -31 -60 -99 -219 -151 -352 -112 -282 -167 -396 -236 -487 -28 -37 -44 -66 -37 -66 98 0 949 54 1027 65 199 29 441 121 596 227 129 88 304 271 514 537 l43 54 -60 -7 c-208 -25 -405 -77 -789 -211 -148 -51 -304 -104 -345 -116 -88 -26 -233 -59 -238 -55 -1 2 8 73 22 157 14 85 48 294 76 464 27 171 52 320 55 333 7 29 -2 28 -46 -6z"
       id="path38" />
    <path
       d="M9194 2185 c-100 -42 -247 -126 -356 -204 -81 -57 -125 -92 -490 -387 -143 -116 -298 -227 -404 -290 -16 -9 5 -19 131 -59 83 -26 218 -72 300 -102 166 -60 425 -141 562 -175 74 -18 118 -22 278 -22 170 -1 199 1 275 23 92 25 206 74 263 113 37 25 236 192 233 195 -1 1 -262 9 -581 19 -319 9 -582 18 -584 20 -2 2 15 22 37 46 176 189 344 498 417 769 16 61 20 89 12 89 -7 -1 -48 -16 -93 -35z"
       id="path40" />
    <path
       d="M3515 2168 c14 -83 85 -281 150 -416 71 -148 184 -324 264 -413 l50 -57 -112 -6 c-61 -3 -283 -10 -492 -16 -209 -6 -417 -13 -463 -16 l-82 -6 71 -66 c145 -135 224 -185 369 -232 293 -96 558 -56 1170 172 96 36 228 83 293 104 64 21 117 41 117 44 -1 3 -42 31 -92 64 -100 64 -265 195 -458 361 -259 224 -427 349 -581 434 -64 34 -192 91 -207 91 -2 0 -1 -19 3 -42z"
       id="path42" />
    <path
       d="M6820 1273 c-71 -9 -162 -33 -202 -54 -139 -71 -230 -243 -215 -407 18 -187 209 -391 426 -456 55 -16 141 -22 141 -9 0 3 -44 49 -99 102 -112 109 -138 160 -148 288 -5 68 -4 73 21 98 24 24 33 27 72 21 66 -9 166 -53 332 -149 230 -133 377 -189 625 -239 98 -20 142 -23 362 -23 172 0 272 4 320 14 101 20 266 76 359 123 154 77 295 185 265 203 -6 5 -69 8 -138 7 -378 -4 -727 50 -994 151 -37 15 -210 87 -385 161 -192 82 -347 142 -392 151 -75 17 -284 27 -350 18z"
       id="path44" />
    <path
       d="M5658 1230 c-90 -15 -155 -40 -438 -165 -477 -212 -548 -237 -804 -281 -127 -23 -193 -28 -416 -33 -146 -3 -271 -10 -278 -15 -34 -21 134 -147 302 -227 191 -90 307 -117 556 -126 404 -14 702 64 1046 273 160 96 260 143 324 151 43 5 51 3 74 -20 31 -31 34 -87 10 -180 -25 -95 -50 -135 -148 -232 l-91 -90 44 -3 c155 -11 383 149 478 336 32 64 37 84 41 162 9 182 -73 331 -223 408 -90 45 -330 67 -477 42z"
       id="path46" />
  </g>
  <text
     xml:space="preserve"
     style="font-style:normal;font-variant:normal;font-weight:normal;font-stretch:normal;font-size:467.95251465px;line-height:125%;font-family:'DIN Condensed';-inkscape-font-specification:'DIN Condensed, ';letter-spacing:0px;word-spacing:0px;fill:#000000;fill-opacity:1;stroke:none;stroke-width:5.48381853px;stroke-linecap:butt;stroke-linejoin:miter;stroke-opacity:1"
     x="221.13283"
     y="810.18048"
     id="text866"
     inkscape:transform-center-x="-21.322034"
     inkscape:transform-center-y="2.6652542"><tspan
       sodipodi:role="line"
       x="221.13283"
       y="810.18048"
       style="font-style:normal;font-variant:normal;font-weight:normal;font-stretch:normal;font-size:467.95251465px;font-family:'DIN Condensed';-inkscape-font-specification:'DIN Condensed, ';stroke-width:5.48381853px"
       id="tspan868">LP/CP</tspan></text>
  <text
     xml:space="preserve"
     style="font-style:normal;font-variant:normal;font-weight:normal;font-stretch:normal;font-size:144px;line-height:125%;font-family:'DIN Alternate';-inkscape-font-specification:'DIN Alternate';letter-spacing:0px;word-spacing:0px;fill:#000000;fill-opacity:1;stroke:none;stroke-width:0.75px;stroke-linecap:butt;stroke-linejoin:miter;stroke-opacity:1"
     x="362.47455"
     y="940.83478"
     id="text874"><tspan
       sodipodi:role="line"
       id="tspan872"
       x="362.47455"
       y="940.83478"
       style="font-style:normal;font-variant:normal;font-weight:normal;font-stretch:normal;font-size:144px;font-family:'DIN Alternate';-inkscape-font-specification:'DIN Alternate';stroke-width:0.75px">CONTEST</tspan></text>
</svg>
